<svg width="40" height="40" viewBox="0 0 40 40" fill="none" xmlns="http://www.w3.org/2000/svg">
<circle cx="20" cy="20" r="20" fill="#4D3C5E" fill-opacity="0.5"/>
<path d="M29.375 19.5H21.4805L18.0754 18.452C17.6861 18.332 17.3528 18.0765 17.136 17.7317C16.9193 17.3869 16.8334 16.9757 16.894 16.573C16.9546 16.1702 17.1577 15.8026 17.4664 15.5369C17.7751 15.2711 18.1689 15.125 18.5762 15.125H21.1852C21.5473 15.1247 21.9024 15.2254 22.2106 15.4157C22.5187 15.606 22.7677 15.8784 22.9297 16.2023C23.0039 16.3505 23.1338 16.4632 23.291 16.5155C23.4482 16.5679 23.6198 16.5557 23.768 16.4816L25.4453 15.643C25.5935 15.5689 25.7063 15.4389 25.7587 15.2817C25.8112 15.1245 25.799 14.9529 25.725 14.8047L25.7043 14.7656C25.2892 13.9346 24.6507 13.2356 23.8606 12.7471C23.0704 12.2586 22.1598 11.9999 21.2309 12H18.5746C17.9011 12.0005 17.2351 12.1419 16.6195 12.415C16.0038 12.6881 15.4521 13.0869 14.9996 13.5859C14.5472 14.0848 14.2041 14.6728 13.9923 15.3122C13.7805 15.9515 13.7048 16.6281 13.7699 17.2984C13.848 18.1145 14.1645 18.8543 14.6207 19.5H10.625C10.4592 19.5 10.3003 19.5658 10.1831 19.6831C10.0658 19.8003 10 19.9592 10 20.125V21.375C10 21.5408 10.0658 21.6997 10.1831 21.8169C10.3003 21.9342 10.4592 22 10.625 22H29.375C29.5408 22 29.6997 21.9342 29.8169 21.8169C29.9342 21.6997 30 21.5408 30 21.375V20.125C30 19.9592 29.9342 19.8003 29.8169 19.6831C29.6997 19.5658 29.5408 19.5 29.375 19.5ZM22.3344 23.25C22.5761 23.4008 22.7755 23.6106 22.9138 23.8597C23.0521 24.1088 23.1248 24.3889 23.125 24.6738C23.1246 25.1249 22.9452 25.5573 22.6263 25.8763C22.3073 26.1952 21.8749 26.3746 21.4238 26.375H18.8148C18.4527 26.3753 18.0976 26.2746 17.7894 26.0843C17.4813 25.894 17.2323 25.6216 17.0703 25.2977C16.9961 25.1495 16.8662 25.0368 16.709 24.9845C16.5518 24.9321 16.3802 24.9443 16.232 25.0184L14.5547 25.857C14.4065 25.9311 14.2937 26.0611 14.2413 26.2183C14.1888 26.3755 14.201 26.5471 14.275 26.6953L14.2957 26.7344C14.7108 27.5654 15.3493 28.2644 16.1394 28.7529C16.9296 29.2414 17.8402 29.5001 18.7691 29.5H21.4254C22.0989 29.4995 22.7649 29.3581 23.3805 29.085C23.9962 28.8119 24.5479 28.4131 25.0004 27.9141C25.4528 27.4152 25.7959 26.8272 26.0077 26.1878C26.2195 25.5485 26.2952 24.8719 26.2301 24.2016C26.1955 23.8777 26.1255 23.5586 26.0215 23.25H22.3344Z" fill="#796988"/>
</svg>
