<svg width="43" height="40" viewBox="0 0 43 40" fill="none" xmlns="http://www.w3.org/2000/svg">
<ellipse cx="21.5625" cy="20" rx="21.0625" ry="20" fill="#9AA489" fill-opacity="0.5"/>
<path d="M10.6364 21.25C10.2743 21.25 9.97815 21.5312 9.97815 21.875V23.125C9.97815 23.4688 10.2743 23.75 10.6364 23.75H15.2438V21.25H10.6364ZM30.7527 14.1016L26.7253 10.2734C26.5402 10.0977 26.2892 10 26.026 10H25.775V15H31.0406V14.7617C31.0406 14.5156 30.9378 14.2773 30.7527 14.1016ZM24.4586 15.3125V10H16.2311C15.6839 10 15.2438 10.418 15.2438 10.9375V21.25H20.5094V18.7031C20.5094 18.1445 21.2211 17.8672 21.6366 18.2617L25.5693 22.0312C25.8408 22.293 25.8408 22.7109 25.5693 22.9688L21.6325 26.7344C21.217 27.1289 20.5053 26.8516 20.5053 26.293V23.75H15.2438V29.0625C15.2438 29.582 15.6839 30 16.2311 30H30.0533C30.6005 30 31.0406 29.582 31.0406 29.0625V16.25H25.4459C24.9029 16.25 24.4586 15.8281 24.4586 15.3125Z" fill="#CDE1AD"/>
</svg>
