<svg width="40" height="40" viewBox="0 0 40 40" fill="none" xmlns="http://www.w3.org/2000/svg">
<circle cx="20" cy="20" r="20" fill="#545157" fill-opacity="0.5"/>
<path d="M33.0601 23.6744L28.5494 28.1851C28.1295 28.605 27.4487 28.605 27.0288 28.1851L22.5181 23.6744C22.0981 23.2545 22.0981 22.5737 22.5181 22.1538L23.0029 21.669C23.4313 21.2406 24.1289 21.2505 24.5449 21.691L26.3555 23.6081V15.4492H17.9533C17.6682 15.4492 17.3947 15.336 17.193 15.1343L16.4762 14.4175C15.7989 13.7402 16.2786 12.582 17.2365 12.582H28.1475C28.7413 12.582 29.2227 13.0634 29.2227 13.6572V23.6081L31.0333 21.691C31.4493 21.2506 32.1468 21.2406 32.5753 21.669L33.0601 22.1538C33.48 22.5737 33.48 23.2545 33.0601 23.6744ZM21.1819 24.3657C21.0821 24.2659 20.9636 24.1867 20.8331 24.1326C20.7027 24.0786 20.5628 24.0508 20.4216 24.0508H12.0195V15.8919L13.8302 17.809C14.2462 18.2494 14.9437 18.2594 15.3721 17.831L15.857 17.3461C16.2769 16.9262 16.2769 16.2455 15.857 15.8256L11.3462 11.3149C10.9263 10.895 10.2456 10.895 9.82569 11.3149L5.31493 15.8256C4.89502 16.2456 4.89502 16.9263 5.31493 17.3462L5.79975 17.831C6.22813 18.2594 6.92571 18.2494 7.34172 17.809L9.15235 15.8919V25.8428C9.15235 26.4366 9.63372 26.918 10.2275 26.918H21.1385C22.0964 26.918 22.5761 25.7599 21.8988 25.0825L21.1819 24.3657Z" fill="#7F7A86"/>
</svg>
