<svg width="41" height="40" viewBox="0 0 41 40" fill="none" xmlns="http://www.w3.org/2000/svg">
<circle cx="20.5" cy="20" r="20" fill="#30464F" fill-opacity="0.5"/>
<path d="M28.625 10C29.6605 10 30.5 10.8395 30.5 11.875V23.125C30.5 24.1605 29.6605 25 28.625 25H17.375C16.3395 25 15.5 24.1605 15.5 23.125V11.875C15.5 10.8395 16.3395 10 17.375 10H28.625ZM17.375 26.25C15.6519 26.25 14.25 24.8481 14.25 23.125V15H12.375C11.3395 15 10.5 15.8395 10.5 16.875V28.125C10.5 29.1605 11.3395 30 12.375 30H23.625C24.6605 30 25.5 29.1605 25.5 28.125V26.25H17.375Z" fill="#4F7281"/>
</svg>
