<svg width="41" height="40" viewBox="0 0 41 40" fill="none" xmlns="http://www.w3.org/2000/svg">
<circle cx="20.5" cy="20" r="20" fill="#52597B" fill-opacity="0.5"/>
<path d="M28.375 11.25H23.6875L23.3203 10.5195C23.2425 10.3634 23.1227 10.232 22.9743 10.1402C22.826 10.0484 22.6549 9.99988 22.4805 10H18.0156C17.8416 9.99934 17.6708 10.0477 17.523 10.1396C17.3751 10.2315 17.2562 10.3632 17.1797 10.5195L16.8125 11.25H12.125C11.9592 11.25 11.8003 11.3159 11.6831 11.4331C11.5658 11.5503 11.5 11.7092 11.5 11.875V13.125C11.5 13.2908 11.5658 13.4497 11.6831 13.567C11.8003 13.6842 11.9592 13.75 12.125 13.75H28.375C28.5408 13.75 28.6997 13.6842 28.8169 13.567C28.9342 13.4497 29 13.2908 29 13.125V11.875C29 11.7092 28.9342 11.5503 28.8169 11.4331C28.6997 11.3159 28.5408 11.25 28.375 11.25ZM13.5781 28.2422C13.6079 28.7182 13.818 29.165 14.1656 29.4916C14.5133 29.8181 14.9723 30 15.4492 30H25.0508C25.5277 30 25.9867 29.8181 26.3344 29.4916C26.682 29.165 26.8921 28.7182 26.9219 28.2422L27.75 15H12.75L13.5781 28.2422Z" fill="#5E6BA5"/>
</svg>
