<svg width="40" height="40" viewBox="0 0 40 40" fill="none" xmlns="http://www.w3.org/2000/svg">
<circle cx="20" cy="20" r="20" fill="#325C80" fill-opacity="0.5"/>
<path d="M9 16.9005V16.2006C9 15.6208 9.47004 15.1507 10.0499 15.1507H25.7982V13.0509C25.7982 12.1162 26.9312 11.6492 27.5905 12.3085L31.0901 15.8082C31.5001 16.2182 31.5001 16.8829 31.0901 17.2929L27.5905 20.7926C26.9337 21.4493 25.7982 20.9888 25.7982 20.0502V17.9504H10.0499C9.47004 17.9504 9 17.4804 9 16.9005ZM30.3477 23.5498H14.5994V21.45C14.5994 20.5177 13.4681 20.0467 12.8071 20.7076L9.30749 24.2073C8.8975 24.6173 8.8975 25.2821 9.30749 25.692L12.8071 29.1917C13.4645 29.849 14.5994 29.3871 14.5994 28.4493V26.3495H30.3477C30.9276 26.3495 31.3976 25.8795 31.3976 25.2996V24.5997C31.3976 24.0199 30.9276 23.5498 30.3477 23.5498Z" fill="#73A5CE"/>
</svg>
