<?xml version="1.0" encoding="UTF-8"?>
<svg version="1.1" xmlns="http://www.w3.org/2000/svg" width="32" height="32">
<path d="M0 0 C10.56 0 21.12 0 32 0 C32 10.56 32 21.12 32 32 C21.44 32 10.88 32 0 32 C0 21.44 0 10.88 0 0 Z " fill="#554406" transform="translate(0,0)"/>
<path d="M0 0 C10.56 0 21.12 0 32 0 C32 10.56 32 21.12 32 32 C21.44 32 10.88 32 0 32 C0 21.44 0 10.88 0 0 Z M5.49609375 5.359375 C3.25393137 7.83789068 2.05189635 9.5225536 1.6875 12.875 C1.790625 13.57625 1.89375 14.2775 2 15 C3.98 15 5.96 15 8 15 C8 15.66 8 16.32 8 17 C6.02 17 4.04 17 2 17 C2.1744367 21.36091749 2.72381974 24.18691575 5.6875 27.375 C8.59667073 30.02354284 11.02008514 30.81048024 15 31 C15 28.69 15 26.38 15 24 C15.66 24.33 16.32 24.66 17 25 C17 26.65 17 28.3 17 30 C20.42810525 29.93143789 23.04774311 29.78160908 25.765625 27.55078125 C28.70699954 24.25958304 30.72402496 21.55358812 31 17 C28.69 17 26.38 17 24 17 C24 16.34 24 15.68 24 15 C26.31 15 28.62 15 31 15 C29.99044984 9.39138798 28.31042654 6.63120984 23.8203125 3.08984375 C21.4472722 1.66907499 19.70602977 1.50799459 17 2 C17 3.98 17 5.96 17 8 C16.34 8 15.68 8 15 8 C15 5.69 15 3.38 15 1 C11.28397751 1 8.21135428 2.90506158 5.49609375 5.359375 Z " fill="#0A0800" transform="translate(0,0)"/>
<path d="M0 0 C4.36091749 0.1744367 7.18691575 0.72381974 10.375 3.6875 C13.02354284 6.59667073 13.81048024 9.02008514 14 13 C11.69 13 9.38 13 7 13 C7 13.66 7 14.32 7 15 C9.31 15 11.62 15 14 15 C12.99044984 20.60861202 11.31042654 23.36879016 6.8203125 26.91015625 C4.4472722 28.33092501 2.70602977 28.49200541 0 28 C0 26.35 0 24.7 0 23 C-0.66 22.67 -1.32 22.34 -2 22 C-2 24.31 -2 26.62 -2 29 C-7.60861202 27.99044984 -10.36879016 26.31042654 -13.91015625 21.8203125 C-15.33092501 19.4472722 -15.49200541 17.70602977 -15 15 C-12.625 15.1875 -12.625 15.1875 -10 16 C-8.6875 18.5625 -8.6875 18.5625 -8 21 C-7.278125 20.835 -6.55625 20.67 -5.8125 20.5 C-3 20 -3 20 -0.3125 20.0625 C2.19860219 20.25989424 2.19860219 20.25989424 4 18 C4.42442445 15.60006644 4.42442445 15.60006644 4.5625 12.9375 C4.90277778 8.09722222 4.90277778 8.09722222 6 7 C5.195625 6.773125 4.39125 6.54625 3.5625 6.3125 C2.716875 5.879375 1.87125 5.44625 1 5 C0.1875 2.375 0.1875 2.375 0 0 Z " fill="#362B02" transform="translate(17,2)"/>
<path d="M0 0 C0.66 0.33 1.32 0.66 2 1 C2.36180905 8.35678392 2.36180905 8.35678392 0.875 11 C-1.81027597 12.43214718 -4.0006984 12.18745635 -7 12 C-7.99 12 -8.98 12 -10 12 C-10.19491452 10.54263913 -10.38069358 9.08405407 -10.5625 7.625 C-10.66691406 6.81289063 -10.77132813 6.00078125 -10.87890625 5.1640625 C-11 3 -11 3 -10 1 C-9.34 1 -8.68 1 -8 1 C-5 6.75 -5 6.75 -5 9 C-1.9083091 6.47043472 -1.09068668 3.77545388 0 0 Z " fill="#110D00" transform="translate(20,11)"/>
<path d="M0 0 C2.97 0.33 5.94 0.66 9 1 C8.25 7.625 8.25 7.625 6 11 C5.34 11 4.68 11 4 11 C3.32591692 9.73308493 2.66099503 8.46129251 2 7.1875 C1.62875 6.47980469 1.2575 5.77210937 0.875 5.04296875 C0 3 0 3 0 0 Z " fill="#483902" transform="translate(11,9)"/>
<path d="M0 0 C0 1.32 0 2.64 0 4 C-1.6396875 4.5259375 -1.6396875 4.5259375 -3.3125 5.0625 C-6.46435287 6.37683541 -7.62316459 7.53564713 -8.9375 10.6875 C-9.288125 11.780625 -9.63875 12.87375 -10 14 C-10.99 14 -11.98 14 -13 14 C-12.93070495 10.53524726 -12.80173399 7.9315778 -10.48046875 5.234375 C-4.44569175 0 -4.44569175 0 0 0 Z " fill="#987706" transform="translate(15,1)"/>
<path d="M0 0 C0.99 0 1.98 0 3 0 C3.350625 1.0725 3.70125 2.145 4.0625 3.25 C5.93898874 7.74082015 8.70074169 8.97204797 13 11 C13 11.99 13 12.98 13 14 C7.39138798 12.99044984 4.63120984 11.31042654 1.08984375 6.8203125 C-0.33092501 4.4472722 -0.49200541 2.70602977 0 0 Z " fill="#977702" transform="translate(2,17)"/>
<path d="M0 0 C4.36091749 0.1744367 7.18691575 0.72381974 10.375 3.6875 C13.02354284 6.59667073 13.81048024 9.02008514 14 13 C13.01 13 12.02 13 11 13 C9.82421875 11.3203125 9.82421875 11.3203125 8.6875 9.125 C6.79288808 5.85563918 6.2824877 5.12791896 2.6875 3.5 C1.800625 3.335 0.91375 3.17 0 3 C0 2.01 0 1.02 0 0 Z " fill="#987802" transform="translate(17,2)"/>
<path d="M0 0 C0.99 0 1.98 0 3 0 C1.99044984 5.60861202 0.31042654 8.36879016 -4.1796875 11.91015625 C-6.5527278 13.33092501 -8.29397023 13.49200541 -11 13 C-11 12.01 -11 11.02 -11 10 C-9.9275 9.649375 -8.855 9.29875 -7.75 8.9375 C-3.25917985 7.06101126 -2.02795203 4.29925831 0 0 Z " fill="#9B7905" transform="translate(28,17)"/>
<path d="M0 0 C0.66 0.33 1.32 0.66 2 1 C2.1953125 7.0546875 2.1953125 7.0546875 2 9 C1.34 9.66 0.68 10.32 0 11 C-1.32 10.67 -2.64 10.34 -4 10 C-2.68 6.7 -1.36 3.4 0 0 Z " fill="#010000" transform="translate(20,11)"/>
<path d="M0 0 C1.88391785 3.26545761 2.49287967 6.28111761 3 10 C2.01 9.67 1.02 9.34 0 9 C-0.12375 8.195625 -0.2475 7.39125 -0.375 6.5625 C-0.684375 5.2940625 -0.684375 5.2940625 -1 4 C-1.66 3.67 -2.32 3.34 -3 3 C-2.01 3 -1.02 3 0 3 C0 2.01 0 1.02 0 0 Z " fill="#645104" transform="translate(8,14)"/>
<path d="M0 0 C0 0.66 0 1.32 0 2 C-0.78375 2.45375 -1.5675 2.9075 -2.375 3.375 C-5.1235949 5.07651113 -5.87921032 6.04519084 -7 9 C-7.66 9 -8.32 9 -9 9 C-8.44706396 4.02357564 -5.06735917 0 0 0 Z " fill="#1B1603" transform="translate(14,5)"/>
<path d="M0 0 C0.33 0.99 0.66 1.98 1 3 C1.99 2.67 2.98 2.34 4 2 C4 2.66 4 3.32 4 4 C2.68 4 1.36 4 0 4 C0 4.66 0 5.32 0 6 C1.32 6 2.64 6 4 6 C3 8 3 8 0 10 C-1.125 3.375 -1.125 3.375 0 0 Z " fill="#6B5605" transform="translate(24,11)"/>
<path d="M0 0 C0.33 0.66 0.66 1.32 1 2 C3.52733235 2.65555119 3.52733235 2.65555119 6 3 C6 3.99 6 4.98 6 6 C5.01 6 4.02 6 3 6 C3 5.01 3 4.02 3 3 C1.02 3.33 -0.96 3.66 -3 4 C-2.01 3.67 -1.02 3.34 0 3 C0 2.01 0 1.02 0 0 Z " fill="#685302" transform="translate(17,5)"/>
</svg>
