<?xml version="1.0" encoding="UTF-8"?>
<svg version="1.1" xmlns="http://www.w3.org/2000/svg" width="128" height="128">
<path d="M0 0 C42.24 0 84.48 0 128 0 C128 42.24 128 84.48 128 128 C85.76 128 43.52 128 0 128 C0 85.76 0 43.52 0 0 Z " fill="#040300" transform="translate(0,0)"/>
<path d="M0 0 C0 5.28 0 10.56 0 16 C-2.000625 16.556875 -4.00125 17.11375 -6.0625 17.6875 C-11.62336107 19.39339734 -15.64563449 21.15195606 -20 25 C-20 25.66 -20 26.32 -20 27 C-19.01 27.66 -18.02 28.32 -17 29 C-16.319375 28.401875 -15.63875 27.80375 -14.9375 27.1875 C-6.98638718 21.26645854 0.23418744 21.2064616 10 22 C14.04435325 22.90215467 17.28826909 24.55714521 20.8125 26.75 C21.534375 27.1625 22.25625 27.575 23 28 C23.99 27.67 24.98 27.34 26 27 C24.94610712 23.86551859 24.05069425 23.0295313 21.13671875 21.33203125 C19.99847656 20.83058594 18.86023438 20.32914063 17.6875 19.8125 C16.55699219 19.30332031 15.42648438 18.79414063 14.26171875 18.26953125 C10.78005487 16.80615457 10.78005487 16.80615457 6 16 C6 10.72 6 5.44 6 0 C21.3431606 0.88945859 32.94044922 6.94837231 43.5625 17.96875 C51.03152607 27.25715422 55 37.02978846 55 49 C49.72 49 44.44 49 39 49 C38.608125 47.35 38.21625 45.7 37.8125 44 C36.43137692 38.96411254 34.80089829 33.75782862 31 30 C29.68 30 28.36 30 27 30 C27.63638352 33.24043562 28.85970321 35.50361298 30.5625 38.3125 C34.32234035 45.71195326 34.37594105 54.07221113 32.16015625 62.0078125 C31.21014773 64.40972084 30.15107479 66.68944841 29 69 C28.3212447 70.66178021 27.65146054 72.32733106 27 74 C28.485 74.99 28.485 74.99 30 76 C35.44989164 69.64179309 36.94559819 62.98934037 39 55 C44.28 55 49.56 55 55 55 C55 67.74180795 49.91109795 80.14600209 40.87890625 89.33984375 C34.70946218 94.79101575 28.46795504 98.48610553 20.8125 101.4375 C20.14742432 101.6967627 19.48234863 101.95602539 18.79711914 102.22314453 C14.07385699 103.93077192 11.30219303 104 6 104 C6 98.72 6 93.44 6 88 C7.629375 87.608125 9.25875 87.21625 10.9375 86.8125 C16.49812434 85.3143007 21.13337124 83.04014093 26 80 C25.67 78.68 25.34 77.36 25 76 C21.16610796 77.43770951 17.58436131 79.19830545 13.96484375 81.09765625 C7.87312207 83.89524613 0.62742168 84.03494234 -5.765625 82.2109375 C-10.07439606 80.52097041 -14.1395996 78.57360026 -18 76 C-18.66 76.99 -19.32 77.98 -20 79 C-14.34248768 84.28034483 -7.45923911 86.50815218 0 88 C0 93.28 0 98.56 0 104 C-13.83674148 104 -24.83366068 98.20692672 -34.75 88.8125 C-43.85312039 79.52949475 -49 68.12820005 -49 55 C-43.72 55 -38.44 55 -33 55 C-32.443125 56.815 -31.88625 58.63 -31.3125 60.5 C-29.50762916 65.95989601 -27.26405472 70.2852543 -24 75 C-22.515 74.505 -22.515 74.505 -21 74 C-21.63056247 71.05737515 -22.59026628 68.65361642 -24 66 C-27.71533825 59.00642212 -27.77365231 51.81220643 -27 44 C-25.34031535 39.18815309 -22.80793966 35.21190949 -20 31 C-21.32 30.34 -22.64 29.68 -24 29 C-29.14370931 35.14387501 -30.85670272 41.30000607 -33 49 C-38.28 49 -43.56 49 -49 49 C-48.12909018 33.97680563 -42.37924985 22.52312548 -31.54296875 12.140625 C-22.36657258 4.41610103 -12.03970254 0 0 0 Z " fill="#060400" transform="translate(61,12)"/>
<path d="M0 0 C0 5.28 0 10.56 0 16 C-2.000625 16.556875 -4.00125 17.11375 -6.0625 17.6875 C-11.62336107 19.39339734 -15.64563449 21.15195606 -20 25 C-20 25.66 -20 26.32 -20 27 C-19.01 27.66 -18.02 28.32 -17 29 C-17.37863042 31.72613899 -17.69313974 33.59550238 -19.375 35.8125 C-23.93213393 41.94710336 -24.85131452 48.57975861 -24 56 C-22.96130479 60.67412845 -21.48266097 64.30282304 -18.75 68.25 C-17 71 -17 71 -17.125 73.6875 C-18 76 -18 76 -20 79 C-14.34248768 84.28034483 -7.45923911 86.50815218 0 88 C0 93.28 0 98.56 0 104 C-13.83674148 104 -24.83366068 98.20692672 -34.75 88.8125 C-43.85312039 79.52949475 -49 68.12820005 -49 55 C-43.72 55 -38.44 55 -33 55 C-32.443125 56.815 -31.88625 58.63 -31.3125 60.5 C-29.50762916 65.95989601 -27.26405472 70.2852543 -24 75 C-22.515 74.505 -22.515 74.505 -21 74 C-21.63056247 71.05737515 -22.59026628 68.65361642 -24 66 C-27.71533825 59.00642212 -27.77365231 51.81220643 -27 44 C-25.34031535 39.18815309 -22.80793966 35.21190949 -20 31 C-21.32 30.34 -22.64 29.68 -24 29 C-29.14370931 35.14387501 -30.85670272 41.30000607 -33 49 C-38.28 49 -43.56 49 -49 49 C-48.12909018 33.97680563 -42.37924985 22.52312548 -31.54296875 12.140625 C-22.36657258 4.41610103 -12.03970254 0 0 0 Z " fill="#D1A80B" transform="translate(61,12)"/>
<path d="M0 0 C15.3431606 0.88945859 26.94044922 6.94837231 37.5625 17.96875 C45.03152607 27.25715422 49 37.02978846 49 49 C43.72 49 38.44 49 33 49 C32.608125 47.35 32.21625 45.7 31.8125 44 C30.43137692 38.96411254 28.80089829 33.75782862 25 30 C23.68 30 22.36 30 21 30 C21.63638352 33.24043562 22.85970321 35.50361298 24.5625 38.3125 C28.32234035 45.71195326 28.37594105 54.07221113 26.16015625 62.0078125 C25.21014773 64.40972084 24.15107479 66.68944841 23 69 C22.3212447 70.66178021 21.65146054 72.32733106 21 74 C22.485 74.99 22.485 74.99 24 76 C29.44989164 69.64179309 30.94559819 62.98934037 33 55 C38.28 55 43.56 55 49 55 C49 67.74180795 43.91109795 80.14600209 34.87890625 89.33984375 C28.70946218 94.79101575 22.46795504 98.48610553 14.8125 101.4375 C14.14742432 101.6967627 13.48234863 101.95602539 12.79711914 102.22314453 C8.07385699 103.93077192 5.30219303 104 0 104 C0 98.72 0 93.44 0 88 C2.4440625 87.4121875 2.4440625 87.4121875 4.9375 86.8125 C10.49812434 85.3143007 15.13337124 83.04014093 20 80 C19.42655063 77.13275314 19.1385485 76.1385485 17 74 C17.1983405 71.12406274 18.04420679 69.94866308 19.9375 67.75 C24.71459947 61.38053404 24.99521844 52.6858454 24 45 C22.37135264 40.47127054 20.42006843 36.42006843 17 33 C17.39504441 30.0371669 18.59817629 27.61673759 20 25 C17.46563702 22.01119952 14.72220176 20.83720421 11.125 19.375 C10.09632812 18.94960938 9.06765625 18.52421875 8.0078125 18.0859375 C4.72328821 16.81593348 4.72328821 16.81593348 0 16 C0 10.72 0 5.44 0 0 Z " fill="#EDB907" transform="translate(67,12)"/>
<path d="M0 0 C2.64 0 5.28 0 8 0 C7.73077761 11.50313843 2.90232435 20.7249245 -5 29 C-12.41696995 35.50428985 -20.6677068 40.57069199 -30.6875 41.25 C-31.450625 41.1675 -32.21375 41.085 -33 41 C-33 38.36 -33 35.72 -33 33 C-31.72125 32.79375 -30.4425 32.5875 -29.125 32.375 C-20.37285392 30.40714326 -12.47897643 25.08632921 -7 18 C-3.47720802 12.27546304 -1.33722103 6.5645396 0 0 Z " fill="#0C0A02" transform="translate(102,69)"/>
<path d="M0 0 C11.28916164 0.19464072 21.17307033 5.5332036 29.0625 13.375 C35.77098543 20.57675642 40.75760991 28.3342725 41.125 38.4375 C41.08375 39.283125 41.0425 40.12875 41 41 C38.36 41 35.72 41 33 41 C32.79375 39.906875 32.5875 38.81375 32.375 37.6875 C29.97529901 28.28867114 25.04877855 20.45607467 17 15 C11.56247324 11.79894422 6.13199548 9.46634675 0 8 C0 5.36 0 2.72 0 0 Z " fill="#0B0800" transform="translate(69,18)"/>
<path d="M0 0 C2.64 0 5.28 0 8 0 C8.32871094 1.14275391 8.32871094 1.14275391 8.6640625 2.30859375 C12.13509078 13.61060047 17.08203225 22.3549601 27.45703125 28.44140625 C31.91687026 30.78833803 35.90293357 32.59760002 41 33 C41 35.64 41 38.28 41 41 C27.69566727 40.10688507 19.12125042 34.75845023 9.890625 25.2734375 C4.05974545 18.26192531 -0.56369541 9.30097418 0 0 Z " fill="#0A0700" transform="translate(18,69)"/>
<path d="M0 0 C0 2.64 0 5.28 0 8 C-0.90878906 8.22042969 -0.90878906 8.22042969 -1.8359375 8.4453125 C-12.18816835 11.21652506 -20.9147867 15.95734206 -27 25 C-29.800041 30.17825764 -32.01362529 35.17619187 -33 41 C-35.64 41 -38.28 41 -41 41 C-40.10846913 26.95838887 -33.31854281 17.27297618 -23 8 C-16.40212894 2.7190953 -8.44790365 0 0 0 Z " fill="#090803" transform="translate(59,18)"/>
<path d="M0 0 C0 1.65 0 3.3 0 5 C-0.72703125 5.08636719 -1.4540625 5.17273438 -2.203125 5.26171875 C-14.23878569 6.94362518 -23.91103983 10.87608387 -33 19 C-33.62648438 19.54527344 -34.25296875 20.09054688 -34.8984375 20.65234375 C-44.8047799 29.84491039 -49.97378021 42.65914273 -51 56 C-52.65 56 -54.3 56 -56 56 C-56.82746705 41.59594402 -51.51994969 29.62079687 -42 18.875 C-30.95564453 6.97666003 -16.49979176 -1.14892167 0 0 Z " fill="#5B4500" transform="translate(61,5)"/>
<path d="M0 0 C7.33215324 -0.36660766 14.04427276 0.53839523 21 3 C21.33 3.66 21.66 4.32 22 5 C22.804375 5.391875 23.60875 5.78375 24.4375 6.1875 C36.19031412 12.16700192 47.22313011 21.39372386 52 34 C52.53560547 35.40185547 52.53560547 35.40185547 53.08203125 36.83203125 C57.13396378 47.75649951 57.13396378 47.75649951 57.0625 52.6875 C57.05347656 53.49574219 57.04445312 54.30398437 57.03515625 55.13671875 C57.02355469 55.75160156 57.01195312 56.36648437 57 57 C55.35 57 53.7 57 52 57 C51.67128906 55.47632812 51.67128906 55.47632812 51.3359375 53.921875 C47.47810023 36.8520381 40.80845859 22.69771265 25.6171875 13.015625 C17.79520526 8.4093944 8.95549515 6.09939582 0 5 C0 3.35 0 1.7 0 0 Z " fill="#A68505" transform="translate(67,5)"/>
<path d="M0 0 C1.98 0 3.96 0 6 0 C5.22095672 11.52164009 5.22095672 11.52164009 3 17 C2.34 17 1.68 17 1 17 C0.95875 18.11375 0.9175 19.2275 0.875 20.375 C0.04675083 27.02465761 -3.64249924 32.87249932 -8.5625 37.3125 C-9.366875 37.869375 -10.17125 38.42625 -11 39 C-11.804375 39.804375 -12.60875 40.60875 -13.4375 41.4375 C-19.83789527 47.83789527 -25.16142147 50.96634476 -34 53 C-34.73863281 53.18820313 -35.47726563 53.37640625 -36.23828125 53.5703125 C-41.29198677 54.80973596 -45.79784502 55.18916927 -51 55 C-51 54.01 -51 53.02 -51 52 C-50.07960938 51.79246094 -49.15921875 51.58492187 -48.2109375 51.37109375 C-31.94396328 47.41202365 -17.26527496 40.98972119 -8.125 26.1875 C-3.64527832 17.89367566 -0.72391691 9.41091983 0 0 Z " fill="#886C04" transform="translate(118,67)"/>
<path d="M0 0 C11.99445271 -0.90524171 21.48452414 4.66545414 30.5 12.046875 C39.38166934 20.11619653 45.95460142 30.88483286 47 43 C47 44.65 47 46.3 47 48 C41.72 48 36.44 48 31 48 C31 46.02 31 44.04 31 42 C31.66 43.32 32.32 44.64 33 46 C35.64 46 38.28 46 41 46 C38.62035361 32.68232986 33.81589916 22.50158012 23 14 C15.47037131 9.38535037 7.85043748 5.99924294 -1 5 C-0.67 3.35 -0.34 1.7 0 0 Z " fill="#EEBC03" transform="translate(69,13)"/>
<path d="M0 0 C5.28 0 10.56 0 16 0 C16 1.98 16 3.96 16 6 C15.34 6 14.68 6 14 6 C14 4.68 14 3.36 14 2 C11.36 2 8.72 2 6 2 C9.65429258 16.91811206 15.55277496 29.49987953 29.1875 37.8125 C35.09171004 40.838145 41.60145594 42.37078323 48 44 C48 45.32 48 46.64 48 48 C37.39704675 49.05560375 28.13242183 45.41367833 19.93359375 38.71484375 C19.29550781 38.14894531 18.65742188 37.58304688 18 37 C17.24847656 36.34128906 16.49695313 35.68257812 15.72265625 35.00390625 C6.36432808 26.26842854 1.9687118 16.58939388 0 4 C0 2.68 0 1.36 0 0 Z " fill="#EEBC02" transform="translate(12,67)"/>
<path d="M0 0 C1.32 0.33 2.64 0.66 4 1 C3.01 1.495 3.01 1.495 2 2 C2 5.96 2 9.92 2 14 C4.165625 14.309375 4.165625 14.309375 6.375 14.625 C15.34644443 16.43959201 23.47070467 21.68576225 29 29 C35.24315025 39.32834204 35.24315025 39.32834204 34.65625 43.36328125 C34.4396875 43.90339844 34.223125 44.44351563 34 45 C30.3740488 43.1870244 29.71390004 38.51892486 28.31640625 34.8828125 C27.11849746 32.25949888 26.18295525 30.82019009 24 29 C23.01 29.33 22.02 29.66 21 30 C21.63638352 33.24043562 22.85970321 35.50361298 24.5625 38.3125 C28.32234035 45.71195326 28.37594105 54.07221113 26.16015625 62.0078125 C25.21014773 64.40972084 24.15107479 66.68944841 23 69 C22.3212447 70.66178021 21.65146054 72.32733106 21 74 C22.485 74.99 22.485 74.99 24 76 C28.02879721 70.88233868 30.25267359 66.26480445 32 60 C32.66 60.66 33.32 61.32 34 62 C33.05277796 71.06626805 26.78439102 78.39921676 20 84 C14.50465851 87.87171787 9.72732663 89.76395345 3 90 C2.34 89.67 1.68 89.34 1 89 C1 93.95 1 98.9 1 104 C0.67 104 0.34 104 0 104 C0 98.72 0 93.44 0 88 C2.4440625 87.4121875 2.4440625 87.4121875 4.9375 86.8125 C10.49812434 85.3143007 15.13337124 83.04014093 20 80 C19.42655063 77.13275314 19.1385485 76.1385485 17 74 C17.1983405 71.12406274 18.04420679 69.94866308 19.9375 67.75 C24.71459947 61.38053404 24.99521844 52.6858454 24 45 C22.37135264 40.47127054 20.42006843 36.42006843 17 33 C17.39504441 30.0371669 18.59817629 27.61673759 20 25 C17.46563702 22.01119952 14.72220176 20.83720421 11.125 19.375 C10.09632812 18.94960938 9.06765625 18.52421875 8.0078125 18.0859375 C4.72328821 16.81593348 4.72328821 16.81593348 0 16 C0 10.72 0 5.44 0 0 Z " fill="#DCB108" transform="translate(67,12)"/>
<path d="M0 0 C1.98 0 3.96 0 6 0 C6.04125 1.175625 6.0825 2.35125 6.125 3.5625 C7.66741597 16.81893994 14.77762935 29.49335978 24.6015625 38.34375 C34.40718898 45.91697161 44.78325306 49.54871978 57 51 C57 52.32 57 53.64 57 55 C47.83230437 55.59789319 40.28557139 52.34453636 32.3046875 48.10546875 C29.86979328 46.82534845 29.86979328 46.82534845 26.4375 46.25 C19.91554149 43.87837872 14.83104532 37.69807374 11 32 C11 31.34 11 30.68 11 30 C10.34 30 9.68 30 9 30 C3.77083985 20.60781915 -0.36291082 10.94780969 0 0 Z " fill="#937604" transform="translate(4,67)"/>
<path d="M0 0 C0 1.32 0 2.64 0 4 C-1.55847656 4.41958984 -1.55847656 4.41958984 -3.1484375 4.84765625 C-16.72693885 8.67761538 -28.24636709 14.97576587 -36.0546875 27.22265625 C-38.20796015 31.12774393 -39.50832973 35.16974653 -40.75 39.4375 C-40.97042969 40.16904297 -41.19085938 40.90058594 -41.41796875 41.65429688 C-41.95301308 43.43390085 -42.4776223 45.2166368 -43 47 C-44.65 47 -46.3 47 -48 47 C-47.0460164 32.45175015 -40.98089128 21.19335122 -30.5625 11.14453125 C-21.31510346 3.40547531 -12.00183413 -0.48987078 0 0 Z " fill="#F0BB06" transform="translate(60,13)"/>
<path d="M0 0 C3.96 0 7.92 0 12 0 C12 0.66 12 1.32 12 2 C11.34 2 10.68 2 10 2 C12.64 8.27 15.28 14.54 18 21 C20.0345041 18.9654959 20.67053275 17.70645577 21.7265625 15.0859375 C22.190625 13.94511719 22.190625 13.94511719 22.6640625 12.78125 C22.98117188 11.9871875 23.29828125 11.193125 23.625 10.375 C23.94984375 9.57320312 24.2746875 8.77140625 24.609375 7.9453125 C25.41078053 5.96536943 26.20598362 3.9829179 27 2 C26.34 2 25.68 2 25 2 C25 1.34 25 0.68 25 0 C27.31 0 29.62 0 32 0 C32 0.66 32 1.32 32 2 C31.55527344 2.40992188 31.11054687 2.81984375 30.65234375 3.2421875 C28.41216141 5.62536021 27.66887699 8.05616415 26.5625 11.125 C25.08455525 15.13911581 23.56465626 19.06403372 21.75 22.9375 C20.22548842 26.26929548 19.37684628 29.32574876 19 33 C16.69140625 32.8671875 16.69140625 32.8671875 14 32 C12.33984375 29.4453125 12.33984375 29.4453125 10.9375 26.125 C10.18533203 24.36542969 10.18533203 24.36542969 9.41796875 22.5703125 C7.8215814 18.55075867 6.27928408 14.52285243 4.859375 10.4375 C3.49178867 5.3715083 3.49178867 5.3715083 0 2 C0 1.34 0 0.68 0 0 Z " fill="#EAB803" transform="translate(48,49)"/>
<path d="M0 0 C0 0.99 0 1.98 0 3 C-0.72703125 3.08636719 -1.4540625 3.17273438 -2.203125 3.26171875 C-14.23878569 4.94362518 -23.91103983 8.87608387 -33 17 C-33.62648438 17.54527344 -34.25296875 18.09054688 -34.8984375 18.65234375 C-43.92352887 27.02715561 -47.54412017 37.53137224 -51 49 C-51.33 49 -51.66 49 -52 49 C-51.7087757 45.99068227 -51.36610972 43.00031378 -51 40 C-50.93554688 39.195625 -50.87109375 38.39125 -50.8046875 37.5625 C-49.8021151 29.54192081 -45.36893306 24.77986637 -40 19 C-39.44183594 18.36191406 -38.88367187 17.72382813 -38.30859375 17.06640625 C-27.90663916 5.77806957 -15.46410218 -0.76052962 0 0 Z " fill="#A3830C" transform="translate(61,7)"/>
<path d="M0 0 C1 1 1 1 1.09765625 4.81640625 C1.09098089 6.39846682 1.07901875 7.98051159 1.0625 9.5625 C1.05798828 10.36880859 1.05347656 11.17511719 1.04882812 12.00585938 C1.03700518 14.00393756 1.01906914 16.00197783 1 18 C0.67 18 0.34 18 0 18 C0 12.72 0 7.44 0 2 C-15.94297482 5.21430944 -28.52770804 9.75563075 -39 23 C-44.70384066 31.98623954 -47.1994246 40.6202124 -49 51 C-43.72 51 -38.44 51 -33 51 C-33 51.33 -33 51.66 -33 52 C-35.81256281 52.02684312 -38.62487241 52.04676188 -41.4375 52.0625 C-42.23994141 52.07087891 -43.04238281 52.07925781 -43.86914062 52.08789062 C-45.91295221 52.0965143 -47.95683902 52.0522815 -50 52 C-51 51 -51 51 -51.22265625 47.43359375 C-51.15946566 42.93101339 -50.07209259 39.22771418 -48.4375 35.0625 C-48.03313721 34.01545898 -48.03313721 34.01545898 -47.62060547 32.94726562 C-45.27368605 27.15738984 -42.2999524 22.5555759 -38 18 C-37.38253906 17.30519531 -36.76507813 16.61039063 -36.12890625 15.89453125 C-27.19967283 6.31851231 -13.5172518 -1.53605134 0 0 Z " fill="#2B2208" transform="translate(61,10)"/>
<path d="M0 0 C0.99 0 1.98 0 3 0 C3.21914062 0.96679688 3.43828125 1.93359375 3.6640625 2.9296875 C7.07325158 17.23906762 13.19166443 28.35383823 25.73828125 36.85546875 C33.89330966 41.52701968 41.73659702 43.67665672 51 45 C51 39.72 51 34.44 51 29 C51.33 29 51.66 29 52 29 C52 34.61 52 40.22 52 46 C47.70721793 48.14639104 43.41136362 47.40558516 38.96875 46.12890625 C24.1761982 40.75780113 12.20583286 32.29076249 5 18 C-0.37528525 5.77939292 -0.37528525 5.77939292 0 0 Z " fill="#271E04" transform="translate(10,71)"/>
<path d="M0 0 C7.33215324 -0.36660766 14.04427276 0.53839523 21 3 C21.33 3.66 21.66 4.32 22 5 C22.99 5.45375 23.98 5.9075 25 6.375 C28 8 28 8 28.875 10.1875 C28.91625 10.785625 28.9575 11.38375 29 12 C29.99 12 30.98 12 32 12 C33.4375 14.1875 33.4375 14.1875 35 17 C36.31037934 18.68477344 37.63823078 20.35648543 39 22 C38.01 22.495 38.01 22.495 37 23 C36.071875 21.9790625 36.071875 21.9790625 35.125 20.9375 C25.28503005 11.2888628 13.57739259 6.63835033 0 5 C0 3.35 0 1.7 0 0 Z " fill="#9D7C05" transform="translate(67,5)"/>
<path d="M0 0 C0.495 0.99 0.495 0.99 1 2 C-0.8078984 7.18264209 -3.8981003 9.92719694 -8 13.3203125 C-9.74319937 14.7843276 -11.31017787 16.28884812 -12.875 17.9375 C-15 20 -15 20 -17 20 C-17.28875 20.61875 -17.5775 21.2375 -17.875 21.875 C-20.19440465 26.25609767 -23.2312683 26.92500578 -27.69921875 28.3359375 C-33.21240419 29.92717948 -38.30936614 30.09811438 -44 30 C-44 29.01 -44 28.02 -44 27 C-43.07960938 26.79246094 -42.15921875 26.58492187 -41.2109375 26.37109375 C-24.26859083 22.24765093 -9.68077193 15.1665427 0 0 Z " fill="#7D6402" transform="translate(111,92)"/>
<path d="M0 0 C1.37556601 2.23339131 2.04897554 3.50846363 1.78515625 6.15625 C-2.85447051 21.20368816 -11.1736284 31.88120181 -24.9140625 39.4609375 C-32.50757882 43.24808361 -39.5309971 45.44465555 -48 46 C-48 45.01 -48 44.02 -48 43 C-47.42894531 42.91363281 -46.85789062 42.82726562 -46.26953125 42.73828125 C-32.71009596 40.38855399 -19.33946567 35.19395488 -10.625 24.0625 C-5.52701535 16.57759768 -1.2626076 9.04868777 0 0 Z " fill="#2E250D" transform="translate(115,73)"/>
<path d="M0 0 C14.25111505 6.62059676 23.65423376 17.35078667 29.54296875 31.77734375 C31.35726516 36.9084982 32.26706259 41.6011893 32.54296875 47.02734375 C31.55296875 47.02734375 30.56296875 47.02734375 29.54296875 47.02734375 C29.49140625 46.34671875 29.43984375 45.66609375 29.38671875 44.96484375 C27.80547766 31.45241993 21.58582746 19.56603402 11.6015625 10.37109375 C3.59311929 4.23435566 -5.35812166 0.16754322 -15.45703125 -0.97265625 C-10.0817349 -4.16649825 -5.51822177 -2.18447889 0 0 Z " fill="#261D03" transform="translate(86.45703125,13.97265625)"/>
<path d="M0 0 C0.70962891 0.54527344 0.70962891 0.54527344 1.43359375 1.1015625 C3.60794854 2.75458076 5.80083464 4.38014497 8 6 C9.02867188 6.77150391 9.02867188 6.77150391 10.078125 7.55859375 C18.74937152 13.74087136 28.34867113 17.45840701 39 18 C39 19.32 39 20.64 39 22 C28.60238115 22.67810558 16.35379534 18.56266129 8.49414062 11.68164062 C5.4108287 8.66349778 2.56531574 5.47339211 0 2 C0 1.34 0 0.68 0 0 Z " fill="#987800" transform="translate(22,100)"/>
<path d="M0 0 C1.98 0 3.96 0 6 0 C5.67 0.99 5.34 1.98 5 3 C4.72405647 8.51887061 5.20611066 12.71274721 7 18 C7.391875 19.258125 7.78375 20.51625 8.1875 21.8125 C11.04918133 29.27901881 16.24782479 35.55875318 22 41 C23.35555293 42.64864545 24.69631653 44.31003995 26 46 C22.66026243 44.55053895 20.47695341 42.71827612 17.9375 40.125 C17.26589844 39.44695312 16.59429688 38.76890625 15.90234375 38.0703125 C11 32.73511294 11 32.73511294 11 30 C10.34 30 9.68 30 9 30 C3.77083985 20.60781915 -0.36291082 10.94780969 0 0 Z " fill="#4A3C00" transform="translate(4,67)"/>
<path d="M0 0 C0.99 0.680625 0.99 0.680625 2 1.375 C9.13946377 5.24220954 17.55115878 6.34058792 25.4609375 4.39453125 C27.67783354 3.66906859 29.83729874 2.87274362 32 2 C33.010625 1.608125 34.02125 1.21625 35.0625 0.8125 C35.701875 0.544375 36.34125 0.27625 37 0 C37 0.99 37 1.98 37 3 C35.41925436 3.81752303 33.83528777 4.62881997 32.25 5.4375 C31.36828125 5.88996094 30.4865625 6.34242187 29.578125 6.80859375 C23.15066554 9.77885911 15.99562746 10.06219849 9.1640625 8.24609375 C4.52809337 6.51270353 1.76935733 5.22504516 -1 1 C-0.67 0.67 -0.34 0.34 0 0 Z " fill="#CCA402" transform="translate(46,86)"/>
<path d="M0 0 C-0.58425044 3.49012764 -1.79796564 5.11966055 -4.25 7.625 C-11.0922904 15.20888834 -14.03888238 24.37223208 -17 34 C-17.33 34 -17.66 34 -18 34 C-17.7087757 30.99068227 -17.36610972 28.00031378 -17 25 C-16.93554688 24.195625 -16.87109375 23.39125 -16.8046875 22.5625 C-15.80778578 14.58728621 -11.36585153 9.73212126 -6 4 C-5.28585938 3.23429687 -4.57171875 2.46859375 -3.8359375 1.6796875 C-2 0 -2 0 0 0 Z " fill="#A78509" transform="translate(27,22)"/>
<path d="M0 0 C2.5 1.5625 2.5 1.5625 4 3 C4 3.66 4 4.32 4 5 C3.0409375 4.5978125 3.0409375 4.5978125 2.0625 4.1875 C1.051875 3.795625 0.04125 3.40375 -1 3 C-1.96486328 2.60361328 -1.96486328 2.60361328 -2.94921875 2.19921875 C-10.69597711 -0.73537014 -18.23891422 -1.52623153 -25.9375 1.9375 C-26.97197266 2.47697266 -26.97197266 2.47697266 -28.02734375 3.02734375 C-30.00871223 4.00429573 -31.84536091 4.54207894 -34 5 C-32.64763776 1.73236333 -31.50709621 0.28340618 -28.3125 -1.25 C-19.38348629 -4.90540529 -8.54079131 -4.35096916 0 0 Z " fill="#EBB803" transform="translate(79,37)"/>
<path d="M0 0 C0 4.69564651 -2.44178884 8.15217006 -5 12 C-7.5 14.25 -7.5 14.25 -10 16 C-10.804375 16.804375 -11.60875 17.60875 -12.4375 18.4375 C-16.97127509 22.97127509 -20.70245515 26.35064302 -27 28 C-24.11017362 22.35795801 -20.14935601 19.9076852 -14.75390625 16.7109375 C-10.4066683 14.0101003 -6.92606377 11.7325545 -4.875 6.9375 C-3.61480845 4.03236815 -2.35510648 2.13556266 0 0 Z " fill="#534403" transform="translate(117,90)"/>
<path d="M0 0 C2.91319598 1.45659799 3.01711259 3.3461589 4.0625 6.375 C4.40410156 7.35210937 4.74570313 8.32921875 5.09765625 9.3359375 C6.34236717 13.01079832 7.11868044 15.81104932 7.0625 19.6875 C7.05347656 20.49574219 7.04445313 21.30398437 7.03515625 22.13671875 C7.02355469 22.75160156 7.01195313 23.36648437 7 24 C5.35 24 3.7 24 2 24 C2.02320312 23.3709375 2.04640625 22.741875 2.0703125 22.09375 C2.16064893 17.80922226 2.14224976 13.90071039 1 9.75 C0.07705749 6.28896557 -0.1776382 3.55276402 0 0 Z " fill="#6E5800" transform="translate(117,38)"/>
<path d="M0 0 C1.35777558 3.39443894 0.57674545 5.48179922 -0.51953125 8.8515625 C-1.48263067 13.15810464 -1.14281689 17.61234772 -1 22 C-2.65 22 -4.3 22 -6 22 C-6.3853211 11.16819572 -6.3853211 11.16819572 -4 6 C-3.34 5.67 -2.68 5.34 -2 5 C-1.27840576 3.35636866 -0.60648579 1.68949614 0 0 Z " fill="#937403" transform="translate(11,39)"/>
<path d="M0 0 C2.31 0 4.62 0 7 0 C7 0.66 7 1.32 7 2 C6.5565625 2.40734375 6.113125 2.8146875 5.65625 3.234375 C3.39079428 5.64943629 2.62582016 8.14677775 1.5 11.25 C-0.21867907 15.8971836 -1.99785197 20.46882288 -4 25 C-4.99 24.34 -5.98 23.68 -7 23 C-6.60167969 22.154375 -6.20335938 21.30875 -5.79296875 20.4375 C-2.95408651 14.35911466 -0.23313675 8.32722079 2 2 C1.34 2 0.68 2 0 2 C0 1.34 0 0.68 0 0 Z " fill="#CDA110" transform="translate(73,49)"/>
<path d="M0 0 C4.37487002 2.14616265 6.44481388 3.46462323 8.1328125 8.1328125 C9.61906363 14.81372778 10.35329154 21.16969697 10 28 C7.94919338 24.92379008 7.44506444 23.00223573 6.6875 19.4375 C5.44731936 14.1699286 3.61409099 9.77575638 0.98828125 5.05859375 C0 3 0 3 0 0 Z " fill="#A68403" transform="translate(110,33)"/>
<path d="M0 0 C3.70152366 0.59277069 6.55096999 1.66638644 9.875 3.375 C16.69092786 6.59181958 23.60591624 7.77264197 31 9 C31.33 8.01 31.66 7.02 32 6 C31.67 7.65 31.34 9.3 31 11 C19.82628078 10.7785389 8.87908262 8.1032661 0 1 C0 0.67 0 0.34 0 0 Z " fill="#423501" transform="translate(30,113)"/>
<path d="M0 0 C0.33 0.66 0.66 1.32 1 2 C-0.81102107 7.19159373 -3.90707777 9.94458935 -8.02734375 13.33203125 C-10.18209663 15.07324629 -10.18209663 15.07324629 -12.4375 17.75 C-15.91652478 20.80475346 -19.58294788 21.81634551 -24 23 C-24 22.34 -24 21.68 -24 21 C-22.18564097 19.87086688 -20.32085937 18.82235036 -18.4375 17.8125 C-10.26567606 13.16898122 -5.20232736 7.7246679 0 0 Z " fill="#B68F04" transform="translate(111,92)"/>
<path d="M0 0 C0.66 0.33 1.32 0.66 2 1 C1.24074219 1.65226562 0.48148438 2.30453125 -0.30078125 2.9765625 C-1.30512206 3.85888059 -2.30900407 4.74172111 -3.3125 5.625 C-4.29863281 6.48351562 -5.28476562 7.34203125 -6.30078125 8.2265625 C-9.04894882 11.05029474 -10.38882654 13.43845867 -12 17 C-12.99219785 18.56025005 -14.01156321 20.10369508 -15.0625 21.625 C-16.93825606 24.34556222 -18.58653605 27.01076046 -20 30 C-20.97634432 27.42816618 -21.09063932 26.25994673 -20.171875 23.625 C-15.26205362 14.56071438 -8.54644823 5.93837717 0 0 Z " fill="#443400" transform="translate(29,15)"/>
<path d="M0 0 C1.65 0 3.3 0 5 0 C5 5.28 5 10.56 5 16 C-7.625 20 -7.625 20 -11 20 C-11 19.34 -11 18.68 -11 18 C-9.42032193 17.32471777 -7.83608097 16.66010306 -6.25 16 C-5.36828125 15.62875 -4.4865625 15.2575 -3.578125 14.875 C-1 14 -1 14 3 14 C2.67 11.03 2.34 8.06 2 5 C2.66 5 3.32 5 4 5 C4 3.68 4 2.36 4 1 C2.68 0.67 1.36 0.34 0 0 Z " fill="#DAAC0B" transform="translate(56,12)"/>
<path d="M0 0 C0.99 0.33 1.98 0.66 3 1 C-0.75820597 5.42141879 -5.63674997 8.017895 -11.3125 8.8125 C-15 9 -15 9 -17 8 C-17 12.95 -17 17.9 -17 23 C-17.33 23 -17.66 23 -18 23 C-18 17.72 -18 12.44 -18 7 C-15.4940625 6.38125 -15.4940625 6.38125 -12.9375 5.75 C-9.29685393 4.77541264 -6.20554188 3.73536788 -3 1.75 C-2.01 1.1725 -1.02 0.595 0 0 Z " fill="#CEA50C" transform="translate(85,93)"/>
<path d="M0 0 C0.66 0.66 1.32 1.32 2 2 C1.17571648 10.12121956 -4.01801111 16.81560963 -10 22 C-10.66 22 -11.32 22 -12 22 C-12 21.34 -12 20.68 -12 20 C-11.34 20 -10.68 20 -10 20 C-10 19.01 -10 18.02 -10 17 C-9.236875 16.2575 -8.47375 15.515 -7.6875 14.75 C-4.6659213 11.65815203 -3.50822722 9.02193925 -2 5 C-1.4121875 3.5459375 -1.4121875 3.5459375 -0.8125 2.0625 C-0.544375 1.381875 -0.27625 0.70125 0 0 Z " fill="#DCB112" transform="translate(99,72)"/>
<path d="M0 0 C7.33215324 -0.36660766 14.04427276 0.53839523 21 3 C21.33 3.66 21.66 4.32 22 5 C22.99 5.495 23.98 5.99 25 6.5 C28 8 28 8 29 10 C24.99336387 9.51434714 22.18729807 8.0227661 18.73828125 5.984375 C12.86635176 2.65914751 6.58871237 2.44550012 0 2 C0 1.34 0 0.68 0 0 Z " fill="#594500" transform="translate(67,5)"/>
<path d="M0 0 C1.98 0 3.96 0 6 0 C5.22095672 11.52164009 5.22095672 11.52164009 3 17 C2.67 17 2.34 17 2 17 C1.93941406 16.10796875 1.87882812 15.2159375 1.81640625 14.296875 C1.73261719 13.12640625 1.64882812 11.9559375 1.5625 10.75 C1.48128906 9.58984375 1.40007812 8.4296875 1.31640625 7.234375 C1.06752213 4.69022624 0.71885058 2.44046752 0 0 Z " fill="#5C4B02" transform="translate(118,67)"/>
<path d="M0 0 C2.52970794 2.52970794 2.75360268 4.41071722 3.5625 7.875 C3.81128906 8.92429687 4.06007813 9.97359375 4.31640625 11.0546875 C4.65478516 12.51261719 4.65478516 12.51261719 5 14 C5.21527344 14.74507812 5.43054688 15.49015625 5.65234375 16.2578125 C6 18 6 18 5 20 C4.34 20 3.68 20 3 20 C-0.59681584 13.76551922 -0.12400212 6.97167454 0 0 Z " fill="#A88707" transform="translate(8,68)"/>
<path d="M0 0 C1.98 0 3.96 0 6 0 C5.67 0.99 5.34 1.98 5 3 C4.931009 5.06145107 4.91532273 7.12501401 4.9375 9.1875 C4.94652344 10.27417969 4.95554687 11.36085938 4.96484375 12.48046875 C4.97644531 13.31191406 4.98804688 14.14335938 5 15 C4.67 14.34 4.34 13.68 4 13 C3.34 13 2.68 13 2 13 C-0.28571429 4.57142857 -0.28571429 4.57142857 0 0 Z " fill="#644F01" transform="translate(4,67)"/>
<path d="M0 0 C4.22753978 1.49207286 5.38203428 3.95658572 7.3125 7.875 C7.84488281 8.92429687 8.37726563 9.97359375 8.92578125 11.0546875 C10.01275696 14.03497727 10.18651988 15.12737292 9 18 C6.00095388 16.50047694 5.75643397 14.26346074 4.5625 11.1875 C3.07112642 7.34919998 1.63888724 4.17743565 -1 1 C-0.67 0.67 -0.34 0.34 0 0 Z " fill="#CAA60C" transform="translate(92,39)"/>
<path d="M0 0 C0.66 0 1.32 0 2 0 C2 0.99 2 1.98 2 3 C-5.71485433 7.8762059 -11.97015433 8.63690134 -21 8 C-21 7.67 -21 7.34 -21 7 C-19.39125 6.9071875 -19.39125 6.9071875 -17.75 6.8125 C-12.22424989 6.1478227 -4.01753607 4.01753607 0 0 Z " fill="#D9AF0A" transform="translate(81,86)"/>
<path d="M0 0 C1.05226121 3.70682928 0.92633153 6.21747959 0 10 C-0.556875 10.845625 -1.11375 11.69125 -1.6875 12.5625 C-2.120625 13.366875 -2.55375 14.17125 -3 15 C-2.10636395 17.60931266 -2.10636395 17.60931266 -1 20 C-1.66 20.99 -2.32 21.98 -3 23 C-7 16.73913043 -7 16.73913043 -7 14 C-5.78468498 12.55476052 -4.56205186 11.11409785 -3.28125 9.7265625 C-1.07758579 6.7569906 -0.68148266 3.59327218 0 0 Z " fill="#D0A70A" transform="translate(91,69)"/>
<path d="M0 0 C2.97 0.495 2.97 0.495 6 1 C6 1.66 6 2.32 6 3 C6.99 3 7.98 3 9 3 C10.4375 5.1875 10.4375 5.1875 12 8 C13.31037934 9.68477344 14.63823078 11.35648543 16 13 C15.01 13.495 15.01 13.495 14 14 C13.360625 13.319375 12.72125 12.63875 12.0625 11.9375 C8.92713986 8.76589292 5.37868423 6.18888514 1.79296875 3.55078125 C1.20128906 3.03902344 0.60960938 2.52726562 0 2 C0 1.34 0 0.68 0 0 Z " fill="#AD8906" transform="translate(90,14)"/>
<path d="M0 0 C-0.58751867 3.49418996 -1.82961077 5.20332959 -4.25 7.75 C-7.72163882 11.55806568 -10.42923657 15.54558963 -13 20 C-13.33 19.34 -13.66 18.68 -14 18 C-12.38770818 14.2917288 -10.46448446 11.18329242 -8 8 C-7.505 7.154375 -7.01 6.30875 -6.5 5.4375 C-3.15384615 0 -3.15384615 0 0 0 Z " fill="#AA8B18" transform="translate(27,22)"/>
<path d="M0 0 C0.86882813 0.0721875 1.73765625 0.144375 2.6328125 0.21875 C3.78523438 0.3115625 4.93765625 0.404375 6.125 0.5 C7.26195312 0.5928125 8.39890625 0.685625 9.5703125 0.78125 C12.72597149 0.9825221 15.83921165 1.03842904 19 1 C19 2.32 19 3.64 19 5 C12.93261154 5.39569925 7.65596006 4.25411205 2 2 C1.34 1.34 0.68 0.68 0 0 Z " fill="#8F7101" transform="translate(42,117)"/>
<path d="M0 0 C0.598125 0.309375 1.19625 0.61875 1.8125 0.9375 C4.08956772 2.10209704 4.08956772 2.10209704 7 3 C7.14308594 3.58265625 7.28617188 4.1653125 7.43359375 4.765625 C8.21678949 7.85519717 9.91165862 9.42845692 12.0625 11.75 C12.79597656 12.54921875 13.52945312 13.3484375 14.28515625 14.171875 C15.13400391 15.07679687 15.13400391 15.07679687 16 16 C13 16 13 16 11.5703125 14.64453125 C10.85488281 13.73767578 10.85488281 13.73767578 10.125 12.8125 C8.23665967 10.48260745 6.40659106 8.42007763 4.25 6.3125 C2.23055561 4.23695993 1.08104997 2.65348629 0 0 Z " fill="#866A00" transform="translate(16,96)"/>
<path d="M0 0 C0 5.28 0 10.56 0 16 C-2.31 16 -4.62 16 -7 16 C-7 15.67 -7 15.34 -7 15 C-5.02 15 -3.04 15 -1 15 C-1 13.68 -1 12.36 -1 11 C-1.99 10.67 -2.98 10.34 -4 10 C-3.34 10 -2.68 10 -2 10 C-2 7.36 -2 4.72 -2 2 C-3.98 2 -5.96 2 -8 2 C-8 1.67 -8 1.34 -8 1 C-2.25 0 -2.25 0 0 0 Z " fill="#CEA30D" transform="translate(61,100)"/>
<path d="M0 0 C0 4.69037861 -2.43581529 8.16069082 -5 12 C-7.6875 14.375 -7.6875 14.375 -10 16 C-10.66 16.99 -11.32 17.98 -12 19 C-12.66 18.67 -13.32 18.34 -14 18 C-13.2575 17.29875 -12.515 16.5975 -11.75 15.875 C-8.33815482 12.30807095 -5.87781804 8.48553823 -3.375 4.25 C-2 2 -2 2 0 0 Z " fill="#392F03" transform="translate(117,90)"/>
<path d="M0 0 C-5.48371854 4.85098178 -12.08550661 4.13828987 -19 4 C-15.91450652 2.33354243 -12.87324675 1.26238404 -9.5 0.3125 C-8.5615625 0.04050781 -7.623125 -0.23148437 -6.65625 -0.51171875 C-3.99233534 -1.00140894 -2.52388628 -0.88693174 0 0 Z " fill="#BB9200" transform="translate(86,116)"/>
<path d="M0 0 C0.33 0 0.66 0 1 0 C1.3540919 6.51791392 1.03901852 11.17521449 -2 17 C-2.33 17 -2.66 17 -3 17 C-2.54775239 11.08507728 -1.8417395 5.64800112 0 0 Z " fill="#B28E03" transform="translate(119,68)"/>
<path d="M0 0 C-2.07914664 0.70005949 -4.16351586 1.38462244 -6.25 2.0625 C-7.41015625 2.44535156 -8.5703125 2.82820313 -9.765625 3.22265625 C-12.80077085 3.95211763 -14.15703213 4.11889082 -17 3 C-17 2.34 -17 1.68 -17 1 C-14.73052303 0.63724344 -12.45935265 0.28506814 -10.1875 -0.0625 C-8.92292969 -0.25972656 -7.65835938 -0.45695312 -6.35546875 -0.66015625 C-3 -1 -3 -1 0 0 Z " fill="#2B2104" transform="translate(84,115)"/>
<path d="M0 0 C0.49628906 0.37511719 0.99257813 0.75023438 1.50390625 1.13671875 C5.95741524 4.49163919 10.45004098 7.77711236 15 11 C11.51612903 12.237691 11.51612903 12.237691 9.21875 11.1796875 C5.60831566 8.43903961 2.56926782 5.80251637 0 2 C0 1.34 0 0.68 0 0 Z " fill="#B68E02" transform="translate(22,100)"/>
<path d="M0 0 C5.30475449 1.4919622 9.25821979 5.08475978 13 9 C14.23828125 11.2265625 14.23828125 11.2265625 15 13 C11.24396542 10.60979618 8.08799934 8.19828503 5 5 C4.34 4.67 3.68 4.34 3 4 C3 3.34 3 2.68 3 2 C2.01 2 1.02 2 0 2 C0 1.34 0 0.68 0 0 Z " fill="#524200" transform="translate(96,15)"/>
<path d="M0 0 C2.51239382 3.76859072 3.12663199 6.26239249 3.0625 10.6875 C3.05347656 11.49574219 3.04445313 12.30398437 3.03515625 13.13671875 C3.02355469 13.75160156 3.01195313 14.36648437 3 15 C1.35 15 -0.3 15 -2 15 C-1.01 14.67 -0.02 14.34 1 14 C0.835 13.175 0.67 12.35 0.5 11.5 C-0.05896045 7.58727683 -0.06807187 3.94816827 0 0 Z " fill="#3C3001" transform="translate(121,47)"/>
<path d="M0 0 C0.33 0 0.66 0 1 0 C0.67 5.28 0.34 10.56 0 16 C-0.66 16 -1.32 16 -2 16 C-2.20413361 10.26157749 -2.27141454 5.39460953 0 0 Z " fill="#564500" transform="translate(7,45)"/>
<path d="M0 0 C2.73854861 1.19811502 4.80944499 2.29044922 7 4.3125 C7 4.9725 7 5.6325 7 6.3125 C6.360625 6.044375 5.72125 5.77625 5.0625 5.5 C1.08797739 3.95885858 -2.94884495 2.63640688 -7 1.3125 C-3.375 -0.7734375 -3.375 -0.7734375 0 0 Z " fill="#CBA303" transform="translate(76,35.6875)"/>
<path d="M0 0 C0.99 0.66 1.98 1.32 3 2 C-5.261959 7.55580866 -5.261959 7.55580866 -10 8 C-10 7.34 -10 6.68 -10 6 C-7.8125 4.4921875 -7.8125 4.4921875 -5 2.875 C-4.071875 2.33617188 -3.14375 1.79734375 -2.1875 1.2421875 C-1.465625 0.83226563 -0.74375 0.42234375 0 0 Z " fill="#AB8602" transform="translate(97,107)"/>
<path d="M0 0 C0 0.33 0 0.66 0 1 C-0.83144531 1.20496094 -1.66289063 1.40992188 -2.51953125 1.62109375 C-4.14955078 2.02521484 -4.14955078 2.02521484 -5.8125 2.4375 C-7.43091797 2.83775391 -7.43091797 2.83775391 -9.08203125 3.24609375 C-11.0740843 3.76077412 -13.04811524 4.34937175 -15 5 C-15.66 4.34 -16.32 3.68 -17 3 C-10.92158211 0.15035942 -6.62420971 -1.72805471 0 0 Z " fill="#302306" transform="translate(56,12)"/>
<path d="M0 0 C3.94949704 0.62816498 7.19892028 1.8645529 10.8125 3.5625 C12.27623047 4.24505859 12.27623047 4.24505859 13.76953125 4.94140625 C14.87361328 5.46541016 14.87361328 5.46541016 16 6 C12.51261488 7.23925303 10.75296632 6.7983396 7.4375 5.25 C6.67308594 4.90453125 5.90867187 4.5590625 5.12109375 4.203125 C3.02604843 3.01477517 1.60304277 1.78229675 0 0 Z " fill="#4E3D00" transform="translate(30,113)"/>
<path d="M0 0 C3 2 3 2 3.6875 4.0625 C4.11162815 8.04930461 4.07852899 11.9950216 4 16 C2.14353999 13.21530998 1.54842185 11.7318584 0.875 8.5625 C0.70742187 7.80066406 0.53984375 7.03882813 0.3671875 6.25390625 C0 4 0 4 0 0 Z " fill="#B89403" transform="translate(116,45)"/>
<path d="M0 0 C-2.34109882 1.56073255 -4.56333403 2.86373867 -7.0625 4.125 C-8.10083984 4.65480469 -8.10083984 4.65480469 -9.16015625 5.1953125 C-11 6 -11 6 -13 6 C-11.93363297 2.90753562 -10.99355341 1.99584553 -8.1875 0.1875 C-4.81023996 -1.07069492 -3.36888105 -1.0899321 0 0 Z " fill="#CFA90E" transform="translate(58,36)"/>
<path d="M0 0 C5.11365014 1.0681847 10.07227969 2.23107476 15 4 C15 4.33 15 4.66 15 5 C9.93676791 5.20666253 5.76017293 4.80886571 1 3 C0.67 2.01 0.34 1.02 0 0 Z " fill="#B68D00" transform="translate(40,114)"/>
<path d="M0 0 C4.29 0 8.58 0 13 0 C13.33 0.99 13.66 1.98 14 3 C12.22925083 3.02705729 10.45838289 3.04642195 8.6875 3.0625 C7.70136719 3.07410156 6.71523438 3.08570312 5.69921875 3.09765625 C3 3 3 3 0 2 C0 1.34 0 0.68 0 0 Z " fill="#BF9808" transform="translate(55,92)"/>
<path d="M0 0 C0.66 0.99 1.32 1.98 2 3 C1.3203125 5.26171875 1.3203125 5.26171875 0.125 7.6875 C-0.45894531 8.89986328 -0.45894531 8.89986328 -1.0546875 10.13671875 C-1.52261719 11.05904297 -1.52261719 11.05904297 -2 12 C-3.1171875 10.265625 -3.1171875 10.265625 -4 8 C-3.3203125 5.859375 -3.3203125 5.859375 -2.125 3.75 C-1.73570313 3.04359375 -1.34640625 2.3371875 -0.9453125 1.609375 C-0.63335937 1.07828125 -0.32140625 0.5471875 0 0 Z " fill="#B49315" transform="translate(39,46)"/>
<path d="M0 0 C3.53586014 3.17320782 5.58578031 5.16743695 6 10 C3.54896452 9.01958581 2.23241214 8.3486182 0.75 6.125 C0 4 0 4 0 0 Z " fill="#564300" transform="translate(111,28)"/>
<path d="M0 0 C0.99 0 1.98 0 3 0 C3.66 3.3 4.32 6.6 5 10 C2 9 2 9 0.8125 7.25 C-0.10819096 4.70039426 -0.14948718 2.69076919 0 0 Z " fill="#3E2F03" transform="translate(10,71)"/>
<path d="M0 0 C3.59519912 2.62352368 6.15521934 4.90048741 8 9 C7.5703125 11.15625 7.5703125 11.15625 7 13 C6.01364163 11.58833114 5.03618745 10.17043816 4.0625 8.75 C3.51722656 7.96109375 2.97195312 7.1721875 2.41015625 6.359375 C1.10377559 4.17363007 0.45019489 2.4846199 0 0 Z " fill="#1C1503" transform="translate(103,27)"/>
<path d="M0 0 C5.08139441 1.59700967 8.63039113 4.41036411 11.14453125 9.1640625 C11.42683594 9.76992188 11.70914063 10.37578125 12 11 C7.36279281 7.72469104 3.31457218 4.69564393 0 0 Z " fill="#886C00" transform="translate(99,19)"/>
<path d="M0 0 C-3.07692746 2.6815279 -5.19734663 3.42087807 -9.25 3.6875 C-10.14203125 3.75324219 -11.0340625 3.81898437 -11.953125 3.88671875 C-12.62859375 3.92410156 -13.3040625 3.96148437 -14 4 C-11.58592302 2.39061535 -9.65955563 1.34509262 -7 0.3125 C-5.9790625 -0.09548828 -5.9790625 -0.09548828 -4.9375 -0.51171875 C-3 -1 -3 -1 0 0 Z " fill="#443812" transform="translate(91,111)"/>
<path d="M0 0 C3.36720387 1.39332574 4.9859524 2.9789286 7 6 C6.34 6.66 5.68 7.32 5 8 C2.5 5.6875 2.5 5.6875 0 3 C0 2.01 0 1.02 0 0 Z " fill="#362903" transform="translate(23,98)"/>
<path d="M0 0 C0.99 0.33 1.98 0.66 3 1 C3 1.66 3 2.32 3 3 C3.639375 3.28875 4.27875 3.5775 4.9375 3.875 C7 5 7 5 8 7 C5.25851328 6.62952882 3.41406801 6.31412056 1.1875 4.625 C0 3 0 3 0 0 Z " fill="#E0B401" transform="translate(36,88)"/>
<path d="M0 0 C3 1 3 1 4.6875 4.0625 C5.120625 5.031875 5.55375 6.00125 6 7 C5.01 7 4.02 7 3 7 C0.64276511 4.46815512 0 3.52809907 0 0 Z " fill="#A88608" transform="translate(15,91)"/>
<path d="M0 0 C2.31 0 4.62 0 7 0 C7 0.66 7 1.32 7 2 C5.37373596 3.38232443 3.7074998 4.71937515 2 6 C2 4.68 2 3.36 2 2 C1.34 2 0.68 2 0 2 C0 1.34 0 0.68 0 0 Z " fill="#CFA005" transform="translate(73,49)"/>
<path d="M0 0 C2 4 2 4 1.125 7.25 C0.75375 8.1575 0.3825 9.065 0 10 C-0.99 9.67 -1.98 9.34 -3 9 C-2.01 6.03 -1.02 3.06 0 0 Z " fill="#BE9610" transform="translate(74,53)"/>
<path d="M0 0 C3.73639216 1.24546405 4.18756513 2.63404953 6 6 C5.34 6.66 4.68 7.32 4 8 C0 2.25 0 2.25 0 0 Z " fill="#D6AF08" transform="translate(31,82)"/>
<path d="M0 0 C2.11180592 2.57089417 3.66306057 4.63060567 4 8 C3.34 8.66 2.68 9.32 2 10 C0.39644899 6.49223216 -0.22036864 3.85645121 0 0 Z " fill="#2E2407" transform="translate(111,37)"/>
<path d="M0 0 C0.94875 0.350625 1.8975 0.70125 2.875 1.0625 C2.875 2.0525 2.875 3.0425 2.875 4.0625 C-2.875 2.3125 -2.875 2.3125 -5.125 0.0625 C-3.125 -0.9375 -3.125 -0.9375 0 0 Z " fill="#C9A203" transform="translate(80.125,28.9375)"/>
<path d="M0 0 C-1.75 1.5625 -1.75 1.5625 -4 3 C-6.25 2.6875 -6.25 2.6875 -8 2 C-6.14210462 -1.71579076 -3.44525918 -1.06921837 0 0 Z " fill="#AE8801" transform="translate(86,116)"/>
<path d="M0 0 C1.05654161 3.6700919 0.89532484 6.25591431 0 10 C-0.66 10.66 -1.32 11.32 -2 12 C-2 7.56486311 -1.13764351 4.26616316 0 0 Z " fill="#B5930E" transform="translate(91,69)"/>
<path d="M0 0 C0.66 0.33 1.32 0.66 2 1 C-0.31 3.31 -2.62 5.62 -5 8 C-5 4.86248779 -4.64820195 3.60242414 -3 1 C-2.01 0.67 -1.02 0.34 0 0 Z " fill="#211E0C" transform="translate(47,41)"/>
<path d="M0 0 C0.99 0.33 1.98 0.66 3 1 C1.35 2.65 -0.3 4.3 -2 6 C-2.66 5.01 -3.32 4.02 -4 3 C-2.1875 1.4375 -2.1875 1.4375 0 0 Z " fill="#CAA61A" transform="translate(43,31)"/>
<path d="M0 0 C0.66 0 1.32 0 2 0 C1.25 5.75 1.25 5.75 -1 8 C-1.93065133 5.39417629 -2.14917407 4.35801776 -1.0625 1.75 C-0.711875 1.1725 -0.36125 0.595 0 0 Z " fill="#D6AD14" transform="translate(30,45)"/>
<path d="M0 0 C0.33 0.66 0.66 1.32 1 2 C0.00390625 3.9453125 0.00390625 3.9453125 -1.4375 6.125 C-1.91058594 6.84945312 -2.38367188 7.57390625 -2.87109375 8.3203125 C-3.24363281 8.87460937 -3.61617187 9.42890625 -4 10 C-4.33 9.34 -4.66 8.68 -5 8 C-3.62292893 4.85240898 -2.43840236 2.43840236 0 0 Z " fill="#B69419" transform="translate(18,32)"/>
<path d="M0 0 C0.33 0.66 0.66 1.32 1 2 C-0.65 3.65 -2.3 5.3 -4 7 C-3.6875 4.625 -3.6875 4.625 -3 2 C-2.01 1.34 -1.02 0.68 0 0 Z " fill="#5E4900" transform="translate(18,27)"/>
<path d="M0 0 C0 0.66 0 1.32 0 2 C-3.3 1.67 -6.6 1.34 -10 1 C-5.64467851 -1.17766075 -4.53374042 -1.03039555 0 0 Z " fill="#2C2000" transform="translate(81,12)"/>
</svg>
