<?xml version="1.0" encoding="UTF-8"?>
<svg version="1.1" xmlns="http://www.w3.org/2000/svg" width="48" height="48">
<path d="M0 0 C15.84 0 31.68 0 48 0 C48 15.84 48 31.68 48 48 C32.16 48 16.32 48 0 48 C0 32.16 0 16.32 0 0 Z " fill="#8A6F07" transform="translate(0,0)"/>
<path d="M0 0 C15.84 0 31.68 0 48 0 C48 15.84 48 31.68 48 48 C32.16 48 16.32 48 0 48 C0 32.16 0 16.32 0 0 Z M6 10 C2.85349573 14.15962019 1.48514193 17.72270475 2 23 C4.97 23 7.94 23 11 23 C11.99 25.97 12.98 28.94 14 32 C13.01 29.69 12.02 27.38 11 25 C8.03 25 5.06 25 2 25 C2.66708958 31.53747784 3.22965556 36.72769501 8.43359375 40.99609375 C13.48776208 44.40439994 16.76462406 46.45130491 23 46 C23 43.03 23 40.06 23 37 C21.02 36.34 19.04 35.68 17 35 C19.15016268 35 20.85622657 35.40652335 22.9375 35.9375 C23.62714844 36.11152344 24.31679688 36.28554688 25.02734375 36.46484375 C26.70157206 36.91904034 28.35427782 37.45142594 30 38 C32.75609585 36.45345713 34.94666478 34.39115902 37 32 C38.04073136 28.78697422 38.04073136 28.78697422 38 26 C38.99 26 39.98 26 41 26 C39.08261195 32.28477193 37.49929006 35.33380663 32 39 C28.625 40.3125 28.625 40.3125 26 41 C25.67 40.01 25.34 39.02 25 38 C25 40.64 25 43.28 25 46 C31.87368163 45.75451137 36.09844958 43.90155042 41 39 C42.54451195 36.32852264 42.54451195 36.32852264 43 34 C43.66 34 44.32 34 45 34 C45.33 31.03 45.66 28.06 46 25 C43.03 25 40.06 25 37 25 C36.67 26.32 36.34 27.64 36 29 C35.505 23.06 35.505 23.06 35 17 C35.66 18.98 36.32 20.96 37 23 C39.97 23 42.94 23 46 23 C46.83832915 17.55086052 44.90904702 14.40353502 41.83984375 10.12109375 C38.05963477 5.76301843 33.73081869 3.05580586 28 2.1875 C27.01 2.125625 26.02 2.06375 25 2 C25 4.97 25 7.94 25 11 C27.64 11.66 30.28 12.32 33 13 C33 13.66 33 14.32 33 15 C28.05 13.02 28.05 13.02 23 11 C23 8.03 23 5.06 23 2 C15.88232827 2 11.00527474 5.10595359 6 10 Z " fill="#040300" transform="translate(0,0)"/>
<path d="M0 0 C2.8100346 1.79363911 4.50940468 3.01880935 6 6 C6.5811138 13.08958838 6.5811138 13.08958838 4.125 16.9375 C0.8698054 20.09695358 -1.42413238 20.33421243 -5.9609375 20.29296875 C-9.13134567 19.83745033 -10.8192402 18.24684343 -13 16 C-14.60086627 12.79826746 -14.49917089 9.47422941 -14 6 C-10.32759145 0.24655994 -6.71744997 -0.96515086 0 0 Z " fill="#0C0A00" transform="translate(28,14)"/>
<path d="M0 0 C2.97 0 5.94 0 9 0 C8.67 2.97 8.34 5.94 8 9 C7.34 9 6.68 9 6 9 C5.773125 9.7425 5.54625 10.485 5.3125 11.25 C2.63577414 16.85837799 -2.3630096 18.95018531 -8 21 C-9.32 21 -10.64 21 -12 21 C-12 18.36 -12 15.72 -12 13 C-11.67 13.99 -11.34 14.98 -11 16 C-4.71522807 14.08261195 -1.66619337 12.49929006 2 7 C3.32350658 3.78734084 3.32350658 3.78734084 4 1 C3.01 1 2.02 1 1 1 C0.979375 1.86625 0.95875 2.7325 0.9375 3.625 C-0.22260896 7.80139225 -1.98847243 9.26042659 -5.2109375 11.99609375 C-5.80132813 12.32738281 -6.39171875 12.65867187 -7 13 C-7.99 12.67 -8.98 12.34 -10 12 C-10.33 11.34 -10.66 10.68 -11 10 C-9.88625 9.7525 -8.7725 9.505 -7.625 9.25 C-4.0058698 8.39920201 -4.0058698 8.39920201 -2.6875 6.125 C-2.460625 5.42375 -2.23375 4.7225 -2 4 C-1.34 2.68 -0.68 1.36 0 0 Z " fill="#6B5508" transform="translate(37,25)"/>
<path d="M0 0 C6.57444816 0.27976375 11.03983637 2.70737241 16 7 C19.14444922 10.66974004 20.87980015 13.65376164 21.3125 18.5 C21.209375 19.325 21.10625 20.15 21 21 C18.03 21 15.06 21 12 21 C12.33 19.68 12.66 18.36 13 17 C13 17.99 13 18.98 13 20 C13.99 20 14.98 20 16 20 C14.08261195 13.71522807 12.49929006 10.66619337 7 7 C3.78734084 5.67649342 3.78734084 5.67649342 1 5 C1 5.99 1 6.98 1 8 C1.969375 8.12375 2.93875 8.2475 3.9375 8.375 C4.948125 8.58125 5.95875 8.7875 7 9 C7.33 9.66 7.66 10.32 8 11 C5.36 10.34 2.72 9.68 0 9 C0 6.03 0 3.06 0 0 Z " fill="#896C02" transform="translate(25,2)"/>
<path d="M0 0 C0 1.32 0 2.64 0 4 C-1.01320313 4.45439453 -1.01320313 4.45439453 -2.046875 4.91796875 C-8.59397265 7.99283398 -12.604306 10.3014109 -15.25 17.3125 C-15.4975 18.199375 -15.745 19.08625 -16 20 C-15.01 20 -14.02 20 -13 20 C-12.67 18.35 -12.34 16.7 -12 15 C-10.875 18.75 -10.875 18.75 -12 21 C-14.97 21 -17.94 21 -21 21 C-21.84346034 15.51750778 -19.85664124 12.42698169 -16.78515625 8.12109375 C-12.10336782 2.55826855 -7.25167744 0 0 0 Z " fill="#705806" transform="translate(23,2)"/>
<path d="M0 0 C5.81435334 0.28362699 9.19901923 2.81696188 13 7 C14.90409545 10.08488191 15 11.16819636 15 15 C14.01 15 13.02 15 12 15 C12 14.01 12 13.02 12 12 C11.34 12 10.68 12 10 12 C9.67 12 9.34 12 9 12 C9.02320312 12.67546875 9.04640625 13.3509375 9.0703125 14.046875 C9.09738281 15.38492187 9.09738281 15.38492187 9.125 16.75 C9.14820312 17.63171875 9.17140625 18.5134375 9.1953125 19.421875 C8.98591041 22.18598257 8.54605633 23.71103349 7 26 C3.00905178 28.06938056 0.52370909 29 -4 29 C-4 28.34 -4 27.68 -4 27 C-2.741875 26.7525 -1.48375 26.505 -0.1875 26.25 C2.45362327 25.56751505 3.8579265 25.11543472 6 23.375 C7.4749101 19.8720885 7.74444231 16.68571929 7 13 C5.29388912 9.79346424 5.29388912 9.79346424 2 8 C-1.37718457 7.60298746 -4.61765016 7.70445487 -8 8 C-7.67 7.34 -7.34 6.68 -7 6 C-5.41705218 5.94562393 -3.83355744 5.90703729 -2.25 5.875 C-1.36828125 5.85179687 -0.4865625 5.82859375 0.421875 5.8046875 C3.1135858 6.00860498 4.69904974 6.63448279 7 8 C6.67 7.01 6.34 6.02 6 5 C2.99152582 3.77479736 2.99152582 3.77479736 0 3 C0 2.01 0 1.02 0 0 Z " fill="#8A6F07" transform="translate(26,7)"/>
<path d="M0 0 C0.99 0 1.98 0 3 0 C3.17015625 0.59167969 3.3403125 1.18335937 3.515625 1.79296875 C5.41040318 7.97115505 7.16696121 12.31223221 12.9375 15.75 C15.66637956 16.86382839 18.09352893 17.57257778 21 18 C21 18.99 21 19.98 21 21 C14.84438232 21.41763778 11.52667405 19.56237682 6.50390625 16.20703125 C2.63891734 12.80029376 1.04380546 8.98521488 0 4 C0 2.68 0 1.36 0 0 Z " fill="#775D01" transform="translate(2,25)"/>
<path d="M0 0 C0 0.99 0 1.98 0 3 C-0.79664063 3.29390625 -0.79664063 3.29390625 -1.609375 3.59375 C-6.95907127 5.85858492 -9.14141508 8.04092873 -11.40625 13.390625 C-11.6021875 13.92171875 -11.798125 14.4528125 -12 15 C-12.99 15 -13.98 15 -15 15 C-14.61006749 9.54094483 -12.79523957 6.88149502 -9 3 C-5.5173193 0.45169705 -4.42565546 0 0 0 Z " fill="#130F03" transform="translate(22,7)"/>
<path d="M0 0 C0.99 0 1.98 0 3 0 C2.71637301 5.81435334 0.18303812 9.19901923 -4 13 C-7.08488191 14.90409545 -8.16819636 15 -12 15 C-12.33 13.68 -12.66 12.36 -13 11 C-11.948125 10.95875 -10.89625 10.9175 -9.8125 10.875 C-4.73575494 9.7098454 -3.84423844 8.26635766 -1 4 C-0.14720662 1.78264561 -0.14720662 1.78264561 0 0 Z " fill="#110D01" transform="translate(38,26)"/>
<path d="M0 0 C5.81435334 0.28362699 9.19901923 2.81696188 13 7 C14.90409545 10.08488191 15 11.16819636 15 15 C14.01 15 13.02 15 12 15 C11.608125 13.9275 11.21625 12.855 10.8125 11.75 C9.24197355 8.09037705 7.40918411 6.16192163 4 4 C1.81785432 3.22166466 1.81785432 3.22166466 0 3 C0 2.01 0 1.02 0 0 Z " fill="#0F0C00" transform="translate(26,7)"/>
<path d="M0 0 C0.99 0 1.98 0 3 0 C3.391875 1.0725 3.78375 2.145 4.1875 3.25 C5.75802645 6.90962295 7.59081589 8.83807837 11 11 C13.18214568 11.77833534 13.18214568 11.77833534 15 12 C15 12.99 15 13.98 15 15 C9.12955569 14.71363686 5.83884069 12.20347991 2 8 C0.37648923 4.96474074 0 3.43801737 0 0 Z " fill="#0E0B00" transform="translate(7,26)"/>
<path d="M0 0 C5.5410745 0.22616631 8.43906946 1.51678322 12.48828125 5.3203125 C15.4116932 8.568548 16.90332647 11.51767248 17.1875 15.875 C17.0946875 16.926875 17.0946875 16.926875 17 18 C15.02 18 13.04 18 11 18 C11.33 16.68 11.66 15.36 12 14 C12 14.99 12 15.98 12 17 C12.99 17 13.98 17 15 17 C12.68325712 9.40623167 9.77748919 6.0286516 2.625 2.1875 C1.75875 1.795625 0.8925 1.40375 0 1 C0 0.67 0 0.34 0 0 Z " fill="#DAAC04" transform="translate(26,5)"/>
<path d="M0 0 C2.1875 0 2.1875 0 5 1 C8.12211888 4.53558868 9.89191066 7.78939944 10.3125 12.5 C10.1578125 13.7375 10.1578125 13.7375 10 15 C9.01 15 8.02 15 7 15 C6.82984375 14.41992188 6.6596875 13.83984375 6.484375 13.2421875 C4.91902489 8.19643129 3.15315509 4.24044994 0 0 Z " fill="#786004" transform="translate(36,8)"/>
<path d="M0 0 C2.17284712 1.86244039 3.14055918 3.30028551 4.375 5.9375 C7.44764705 11.72825789 12.16151607 13.71039846 18 16 C18 16.33 18 16.66 18 17 C12.03963426 16.79086436 8.82347179 15.82208958 4.4765625 11.68359375 C1.16155467 7.90378323 0 4.99411299 0 0 Z " fill="#E7B602" transform="translate(5,26)"/>
<path d="M0 0 C1.1854683 2.80201597 1.01522667 3.95622331 0 6.875 C-2.73537687 11.14902636 -5.98402578 15.10399212 -11.01171875 16.59765625 C-12.9375 16.875 -12.9375 16.875 -16 17 C-13.73948912 15.26114548 -11.54235456 13.7370973 -9.0625 12.3125 C-4.69245556 9.01267052 -2.41956602 4.83913204 0 0 Z " fill="#E4B105" transform="translate(42,26)"/>
<path d="M0 0 C-1.99704988 1.99704988 -3.33909237 2.68808813 -5.875 3.8125 C-11.84933427 6.7402479 -14.24297923 11.07240534 -17 17 C-17.83567096 14.6401493 -18.15436935 13.42430482 -17.28515625 11.03515625 C-13.46984342 4.87945983 -7.93631561 -1.24004931 0 0 Z " fill="#EAB707" transform="translate(23,5)"/>
<path d="M0 0 C0.99 0 1.98 0 3 0 C3.53394179 1.4117783 4.05165104 2.82970244 4.5625 4.25 C4.85253906 5.03890625 5.14257812 5.8278125 5.44140625 6.640625 C6.04522837 9.19103452 5.8473932 10.55322229 5 13 C1.68441485 8.61487125 0.45003347 5.62541841 0 0 Z " fill="#785F03" transform="translate(2,25)"/>
<path d="M0 0 C0.99 0 1.98 0 3 0 C3.66 2.31 4.32 4.62 5 7 C5.66 7 6.32 7 7 7 C6.67 8.65 6.34 10.3 6 12 C3.32098068 9.68118495 2.33795597 7.68185532 1.3125 4.3125 C1.06113281 3.50425781 0.80976563 2.69601563 0.55078125 1.86328125 C0.36902344 1.24839844 0.18726562 0.63351563 0 0 Z " fill="#E1B103" transform="translate(19,19)"/>
<path d="M0 0 C0.66 0.66 1.32 1.32 2 2 C0.19587357 5.26460973 -0.83394693 6.88929795 -4 9 C-4.99 8.67 -5.98 8.34 -7 8 C-7.33 7.34 -7.66 6.68 -8 6 C-5.69 5.34 -3.38 4.68 -1 4 C-0.67 2.68 -0.34 1.36 0 0 Z " fill="#4D3F06" transform="translate(34,29)"/>
<path d="M0 0 C0.33 0 0.66 0 1 0 C1 4.95 1 9.9 1 15 C-1 14 -1 14 -2.25 10.25 C-3.10658591 6.55140814 -2.94287637 4.37446948 -1 1 C-0.67 0.67 -0.34 0.34 0 0 Z " fill="#524106" transform="translate(14,15)"/>
<path d="M0 0 C2.97 0 5.94 0 9 0 C8.67 1.65 8.34 3.3 8 5 C7.34 4.01 6.68 3.02 6 2 C5.01 2.495 5.01 2.495 4 3 C4 2.34 4 1.68 4 1 C3.01 1 2.02 1 1 1 C0.87625 1.969375 0.7525 2.93875 0.625 3.9375 C0.41875 4.948125 0.2125 5.95875 0 7 C-0.99 7.495 -0.99 7.495 -2 8 C-1.34 5.36 -0.68 2.72 0 0 Z " fill="#997A06" transform="translate(37,25)"/>
<path d="M0 0 C2 3 2 3 2 7 C1.34 7 0.68 7 0 7 C-0.66 8.65 -1.32 10.3 -2 12 C-2.99 12 -3.98 12 -5 12 C-4.34 11.34 -3.68 10.68 -3 10 C-2.39688385 8.31238142 -1.86149763 6.59985524 -1.375 4.875 C-1.11460938 3.96492188 -0.85421875 3.05484375 -0.5859375 2.1171875 C-0.39257812 1.41851563 -0.19921875 0.71984375 0 0 Z " fill="#735B06" transform="translate(43,27)"/>
<path d="M0 0 C4.4571874 0.26218749 6.51522698 0.57711289 9.9375 3.5625 C10.618125 4.366875 11.29875 5.17125 12 6 C8.55639368 6 7.25204608 5.20408468 4.3125 3.5 C3.50425781 3.0359375 2.69601563 2.571875 1.86328125 2.09375 C1.24839844 1.7328125 0.63351563 1.371875 0 1 C0 0.67 0 0.34 0 0 Z " fill="#E4B300" transform="translate(26,5)"/>
<path d="M0 0 C1.125 3.75 1.125 3.75 0 6 C-2.97 6 -5.94 6 -9 6 C-8.67 4.35 -8.34 2.7 -8 1 C-7.34 1.99 -6.68 2.98 -6 4 C-5.34 3.67 -4.68 3.34 -4 3 C-4 3.66 -4 4.32 -4 5 C-3.01 5 -2.02 5 -1 5 C-0.67 3.35 -0.34 1.7 0 0 Z " fill="#9A7B0E" transform="translate(11,17)"/>
<path d="M0 0 C2.31 1.65 4.62 3.3 7 5 C4 6 4 6 1.9375 5.125 C1.298125 4.75375 0.65875 4.3825 0 4 C-0.66 3.67 -1.32 3.34 -2 3 C-1 1 -1 1 0 0 Z " fill="#624D01" transform="translate(8,36)"/>
<path d="M0 0 C0.33 0.99 0.66 1.98 1 3 C1.66 3.33 2.32 3.66 3 4 C2.67 4.33 2.34 4.66 2 5 C3.32 5.66 4.64 6.32 6 7 C4.02 7.33 2.04 7.66 0 8 C0 5.36 0 2.72 0 0 Z " fill="#A17D02" transform="translate(25,38)"/>
<path d="M0 0 C2.475 0.495 2.475 0.495 5 1 C6.125 4.75 6.125 4.75 5 7 C3.35 4.69 1.7 2.38 0 0 Z " fill="#6A5403" transform="translate(36,8)"/>
</svg>
