<?xml version="1.0" encoding="UTF-8"?>
<svg version="1.1" xmlns="http://www.w3.org/2000/svg" width="16" height="16">
<path d="M0 0 C5.28 0 10.56 0 16 0 C16 5.28 16 10.56 16 16 C10.72 16 5.44 16 0 16 C0 10.72 0 5.44 0 0 Z " fill="#624E03" transform="translate(0,0)"/>
<path d="M0 0 C5.28 0 10.56 0 16 0 C16 5.28 16 10.56 16 16 C10.72 16 5.44 16 0 16 C0 10.72 0 5.44 0 0 Z M2.0625 2.0625 C0.38096269 5.12883274 0.63948816 7.57513751 1 11 C1.88329643 13.53958234 1.88329643 13.53958234 4 15 C7.91795996 15.56988508 10.07240983 15.59460908 13.4375 13.4375 C15.59460908 10.07240983 15.56988508 7.91795996 15 4 C13.53958234 1.88329643 13.53958234 1.88329643 11 1 C6.35198513 0.51022542 6.35198513 0.51022542 2.0625 2.0625 Z " fill="#0D0A00" transform="translate(0,0)"/>
<path d="M0 0 C5.75 0.75 5.75 0.75 8 3 C8.125 5.625 8.125 5.625 8 8 C7.34 8 6.68 8 6 8 C6 8.66 6 9.32 6 10 C2.37673261 11.2077558 1.35853631 10.54311128 -2 9 C-1.41196203 5.97580475 -0.77321882 2.98241547 0 0 Z " fill="#574502" transform="translate(7,1)"/>
<path d="M0 0 C1.65 0.33 3.3 0.66 5 1 C4.67 2.65 4.34 4.3 4 6 C2.35 5.67 0.7 5.34 -1 5 C-0.67 3.35 -0.34 1.7 0 0 Z " fill="#261E00" transform="translate(6,5)"/>
<path d="M0 0 C0.33 0 0.66 0 1 0 C1 3.3 1 6.6 1 10 C-2.3 10 -5.6 10 -9 10 C-9 9.67 -9 9.34 -9 9 C-7.329375 8.7215625 -7.329375 8.7215625 -5.625 8.4375 C-4.42875 7.963125 -3.2325 7.48875 -2 7 C-0.45913678 3.48599332 -0.45913678 3.48599332 0 0 Z " fill="#181300" transform="translate(15,6)"/>
</svg>
