<svg width="14" height="14" viewBox="0 0 14 14" fill="none" xmlns="http://www.w3.org/2000/svg">
<path d="M0 3C0 1.34315 1.34315 0 3 0H11C12.6569 0 14 1.34315 14 3V11C14 12.6569 12.6569 14 11 14H3C1.34315 14 0 12.6569 0 11V3Z" fill="#7367F0"/>
<path d="M7.00171 8.98421C6.83173 8.98421 6.69378 8.84626 6.69378 8.67628V6.24445C6.69378 6.07447 6.83173 5.93652 7.00171 5.93652C7.17169 5.93652 7.30964 6.07447 7.30964 6.24445V8.67628C7.30964 8.84641 7.17184 8.98421 7.00171 8.98421Z" fill="white"/>
<path d="M7.00171 5.62875C6.92011 5.62875 6.84159 5.59641 6.78462 5.53791C6.72611 5.48094 6.69378 5.40242 6.69378 5.32083C6.69378 5.23923 6.72611 5.16071 6.78462 5.10374C6.89855 4.98827 7.10487 4.98827 7.2188 5.1022C7.27731 5.1607 7.30964 5.23923 7.30964 5.32083C7.30964 5.40088 7.27731 5.48094 7.2188 5.53791C7.16183 5.59641 7.08331 5.62875 7.00171 5.62875Z" fill="white"/>
<path d="M6.99133 11C6.64107 11 6.29388 10.9544 5.95932 10.8644C4.51763 10.4765 3.38878 9.28225 3.08347 7.82162C2.77232 6.33358 3.34659 4.76933 4.54673 3.83647C5.24048 3.29715 6.11544 3 7.01057 3C7.63027 3 8.24565 3.14411 8.79037 3.41647C10.1355 4.08943 11.0046 5.49541 11.0046 6.99854C11.0046 8.225 10.4259 9.40711 9.45656 10.1606C8.76035 10.7019 7.88477 11 6.99133 11ZM7.01073 3.61585C6.25185 3.61585 5.51099 3.8668 4.92485 4.32268C3.90917 5.1122 3.42296 6.43612 3.68639 7.69552C3.94474 8.93106 4.89976 9.94151 6.11944 10.2696C6.40181 10.3455 6.69526 10.3842 6.99133 10.3842C7.74851 10.3842 8.48983 10.1321 9.07874 9.67439C9.8992 9.03668 10.389 8.03639 10.389 6.99854C10.389 5.72666 9.65348 4.53684 8.51508 3.96734C8.05536 3.73748 7.53527 3.61585 7.01073 3.61585Z" fill="white"/>
</svg>
